<svg width="31" height="31" viewBox="0 0 31 31" fill="none" xmlns="http://www.w3.org/2000/svg">
<path d="M26.0271 16.7917H10.3333V14.2083H26.0271L24.025 12.2063L25.8333 10.3333L31 15.5L25.8333 20.6667L24.025 18.7937L26.0271 16.7917ZM19.375 11.625V6.45833H6.45833V24.5417H19.375V19.375H21.9583V24.5417C21.9583 25.2521 21.7054 25.8602 21.1995 26.3661C20.6936 26.872 20.0854 27.125 19.375 27.125H6.45833C5.74792 27.125 5.13976 26.872 4.63385 26.3661C4.12795 25.8602 3.875 25.2521 3.875 24.5417V6.45833C3.875 5.74792 4.12795 5.13976 4.63385 4.63385C5.13976 4.12795 5.74792 3.875 6.45833 3.875H19.375C20.0854 3.875 20.6936 4.12795 21.1995 4.63385C21.7054 5.13976 21.9583 5.74792 21.9583 6.45833V11.625H19.375Z" fill="#322A6A"/>
</svg>
